<svg width="1400" height="192" viewBox="0 0 1400 192" fill="none" xmlns="http://www.w3.org/2000/svg">
<path d="M239.74 41.1851C252.591 41.0667 265.365 43.1858 277.491 47.4458C288.82 51.5469 296.245 58.7023 299.96 68.6958L299.968 68.7173C300.153 69.2059 300.265 69.7188 300.303 70.2397C300.301 70.3572 300.278 70.4735 300.231 70.5815C300.183 70.6934 300.111 70.7927 300.022 70.8755C299.751 71.1069 299.406 71.2313 299.05 71.2222L298.918 71.2183L298.786 71.2251C298.414 71.2436 298.047 71.1392 297.74 70.9272C297.434 70.7151 297.205 70.407 297.091 70.0513L297.07 69.9868L297.047 69.9233C290.573 52.1556 270.17 44.3101 239.92 44.3101H239.917C231.205 44.3159 222.547 45.6934 214.264 48.394C206.464 50.7647 199.324 54.9218 193.411 60.5356L193.387 60.5601L193.362 60.5835C187.808 66.0681 184.942 72.4519 184.942 79.9077C184.942 88.159 187.533 94.7375 193.264 99.3628L193.29 99.3843L193.316 99.4048C199.084 103.878 205.867 106.857 213.062 108.079V108.08C223.259 109.849 233.54 111.094 243.864 111.811C257.769 113.022 268.914 114.558 277.038 116.236L277.079 116.244C284.526 117.69 291.484 121.003 297.302 125.874C302.458 130.298 305.284 136.958 305.284 146.271C305.284 156.367 302.079 164.277 295.973 170.116C289.256 176.384 281.069 180.858 272.169 183.125L272.143 183.132L272.117 183.139C262.359 185.785 252.294 187.131 242.185 187.142H242.167C228.225 187.227 214.39 184.709 201.371 179.717C188.885 174.874 181.227 166.762 178.096 155.631L178.044 155.447L177.972 155.269C177.902 155.097 177.885 154.909 177.92 154.727C177.955 154.545 178.042 154.378 178.17 154.245L178.215 154.199L178.259 154.15C178.449 153.937 178.681 153.767 178.94 153.65C179.199 153.533 179.48 153.473 179.764 153.471C180.144 153.471 180.516 153.583 180.834 153.792C180.953 153.876 181.055 153.981 181.134 154.103C181.214 154.229 181.269 154.37 181.295 154.517L181.327 154.708L181.381 154.893C183.707 162.944 188.756 168.992 196.341 173.371L196.346 173.374C203.738 177.624 211.797 180.588 220.18 182.141C227.412 183.566 234.757 184.34 242.127 184.452L242.158 184.453H242.19C251.136 184.425 260.042 183.259 268.693 180.983C277.178 178.899 285.055 174.852 291.691 169.167L291.705 169.156L291.72 169.143C298.313 163.371 301.474 155.837 301.474 146.539C301.474 138.426 298.866 131.925 293.152 127.314L293.104 127.275L292.562 126.862C286.961 122.645 280.417 119.848 273.492 118.718C265.954 117.334 255.79 116.106 243.248 115.051L243.233 115.05L243.22 115.048L240.645 114.846C227.927 113.814 217.594 112.47 209.844 110.858L209.817 110.852L209.791 110.847L209.08 110.705C201.995 109.223 195.385 106.013 189.839 101.359L189.288 100.889C184.037 96.2405 181.15 89.3011 181.15 79.7134C181.15 70.6331 184.402 63.2861 190.797 57.5952L190.796 57.5942C197.552 51.6465 205.59 47.34 214.281 45.0073L214.35 44.9878C222.606 42.5924 231.146 41.3142 239.741 41.186L239.74 41.1851Z" fill="#453631" stroke="#453631" stroke-width="7" stroke-miterlimit="10"/>
<path d="M74.6504 42.312H74.6641C87.6154 42.312 98.4909 45.3993 107.459 51.4175L107.461 51.4185C113.468 55.4444 118.409 60.5805 122.283 66.8716C117.478 60.711 111.335 55.6832 104.285 52.1899H104.286C95.5394 47.8225 85.9135 45.5174 76.1465 45.4448H75.2012C61.1764 45.4485 48.8644 48.5046 38.4033 54.7583C28.2113 60.7452 19.956 69.5392 14.6211 80.0903L14.6084 80.1147L14.5967 80.1392C9.24401 91.1459 6.50171 103.24 6.58203 115.48C6.66236 127.72 9.56294 139.777 15.0596 150.712L15.0664 150.725L15.0723 150.738C20.3995 161.128 28.4289 169.89 38.3145 176.099L38.3203 176.103C48.1685 182.261 59.5765 185.462 71.1895 185.328C81.6369 185.373 91.975 183.198 101.519 178.944L101.518 178.943C110.955 174.794 119.064 168.119 124.951 159.654L124.952 159.655C125.242 159.24 125.522 158.819 125.798 158.396C121.572 167.732 115.315 174.844 107.026 179.858C97.6213 185.547 86.4935 188.462 73.5156 188.48H72.3564C60.6104 188.382 49.0616 185.396 38.7305 179.778C28.0159 173.923 19.1663 165.165 13.1973 154.508L13.1855 154.487L13.1738 154.466L12.582 153.422C6.56586 142.572 3.4981 129.785 3.49805 114.949C3.49805 99.6483 6.84969 86.5876 13.4141 75.6333L13.4336 75.6001C19.6368 64.9799 28.744 56.3543 39.6816 50.7388L39.6885 50.7349C50.4959 45.1547 62.489 42.2657 74.6504 42.312ZM134.041 46.9146C134.041 46.3124 134.114 45.9212 134.188 45.687C134.223 45.5736 134.257 45.5026 134.279 45.4634C134.3 45.4261 134.315 45.4108 134.318 45.4067C134.322 45.4032 134.328 45.3965 134.344 45.3862C134.361 45.3753 134.401 45.3524 134.477 45.3257C134.634 45.27 134.94 45.1997 135.457 45.1997H135.548L135.638 45.1958C135.842 45.1853 136.046 45.2171 136.237 45.2905C136.428 45.3639 136.601 45.4768 136.746 45.6216C136.891 45.7665 137.005 45.9407 137.078 46.1323C137.152 46.3239 137.183 46.5289 137.173 46.7339L137.169 46.8237V183.996L137.173 184.085C137.183 184.29 137.152 184.495 137.078 184.687C137.005 184.879 136.891 185.053 136.746 185.198C136.601 185.343 136.428 185.455 136.237 185.529C136.046 185.602 135.842 185.634 135.638 185.624L135.548 185.62H135.457C134.94 185.62 134.634 185.549 134.478 185.494C134.403 185.467 134.362 185.445 134.346 185.434C134.33 185.424 134.324 185.418 134.321 185.415C134.318 185.411 134.303 185.395 134.282 185.358C134.26 185.319 134.225 185.247 134.189 185.133C134.134 184.957 134.079 184.691 134.055 184.314L134.041 183.899V136.885L133.087 139.415C133.679 135.953 133.974 132.33 133.977 128.551L134.041 103.394V103.385C134.041 99.8582 133.801 96.4516 133.321 93.1694L134.041 95.0786V46.9146Z" fill="#453631" stroke="#453631" stroke-width="7" stroke-miterlimit="10"/>
<path d="M407.551 42.3589C416.708 42.2486 425.777 44.1638 434.107 47.9692C442.058 51.6812 449.667 57.6624 456.907 66.0532L456.925 66.0728L456.941 66.0923C457.105 66.276 457.202 66.5084 457.22 66.7534V67.2827L457.221 67.3286C457.232 67.7608 457.091 68.1825 456.823 68.521C456.722 68.6458 456.599 68.7506 456.458 68.8276C456.353 68.8855 456.239 68.9268 456.122 68.9517H455.486L455.364 68.9595C455.271 68.966 455.178 68.9462 455.096 68.9019C455.014 68.8575 454.945 68.7906 454.899 68.7085L454.725 68.397L454.49 68.1274L453.86 67.4097C440.59 52.464 424.211 44.872 404.907 44.8647H403.816C392.541 44.9568 381.465 47.8983 371.621 53.4243L371.616 53.4272C361.628 59.0566 353.384 67.3185 347.774 77.3042L347.263 78.2339C341.236 89.0691 338.287 101.742 338.28 116.129V116.13C338.28 129.193 341.096 141.059 346.796 151.649V151.65C352.343 162.102 360.735 170.768 371.002 176.646V176.647C381.415 182.664 393.12 185.644 406.028 185.652V185.653C406.031 185.653 406.034 185.652 406.036 185.652C406.037 185.652 406.039 185.653 406.04 185.653V185.652C415.821 185.689 425.494 183.606 434.394 179.547L434.395 179.548C443.304 175.534 451.106 169.415 457.13 161.718L457.239 161.579L457.333 161.429C457.453 161.239 457.613 161.075 457.801 160.951C457.931 160.864 458.073 160.799 458.222 160.753H458.423C458.898 160.753 459.113 160.874 459.287 161.028C459.49 161.208 459.806 161.603 460.118 162.414C460.092 162.863 460.036 163.173 459.979 163.371C459.958 163.446 459.937 163.495 459.925 163.525L459.854 163.597L459.729 163.756C453.411 171.735 445.228 178.034 435.902 182.1L435.889 182.106L435.876 182.112C426.412 186.331 416.165 188.507 405.805 188.5H405.802C391.892 188.5 379.639 185.304 368.942 178.991L368.936 178.987L368.928 178.982C358.345 172.806 349.686 163.809 343.918 152.995L343.913 152.985L343.907 152.975L343.356 151.937C337.75 141.177 334.922 129.181 334.922 115.881C334.922 101.314 337.893 88.5212 343.742 77.4136L343.746 77.4058L343.75 77.3989C349.406 66.5333 358.126 57.5683 368.828 51.6167L368.836 51.6128L368.844 51.6079C379.71 45.4901 392.56 42.3648 407.51 42.3589H407.551Z" fill="#453631" stroke="#453631" stroke-width="7" stroke-miterlimit="10"/>
<path d="M561.218 42.3198C573.362 42.2161 585.358 44.9993 596.217 50.4419V50.4429C606.888 55.8393 615.588 63.9853 622.326 74.9878C628.985 85.8622 632.488 99.162 632.667 115.042L632.669 115.18L632.682 115.318C632.819 116.844 632.413 118.369 631.536 119.625L631.534 119.627C631.113 120.231 630.079 121.027 627.174 121.027H492.982L493.461 124.951C494.794 135.885 498.648 146.359 504.72 155.547V155.548C510.823 164.825 519.181 172.4 529.009 177.564V177.565C539.273 183.004 550.736 185.783 562.351 185.65L562.352 185.651C570.549 185.626 578.69 184.287 586.464 181.686L586.463 181.685C594.383 179.091 601.816 175.195 608.454 170.154L608.496 170.122L608.538 170.088C609.02 169.699 609.608 169.466 610.224 169.417C610.591 169.425 610.945 169.564 611.219 169.812L611.281 169.869L611.347 169.922C611.399 169.966 611.442 170.02 611.472 170.083C611.494 170.13 611.506 170.182 611.512 170.235C611.49 170.554 611.412 170.867 611.276 171.158C611.128 171.475 610.917 171.759 610.656 171.992L610.632 172.013L610.608 172.035C604.597 177.608 597.437 181.795 589.634 184.3L589.62 184.304L589.606 184.309C581.365 187.03 572.749 188.436 564.074 188.479H563.217C549.113 188.479 536.502 185.232 525.299 178.793L525.288 178.787L525.277 178.781C514.279 172.561 505.224 163.404 499.125 152.333L499.115 152.317L498.539 151.263C492.679 140.342 489.727 128.174 489.727 114.689C489.727 98.9999 493.219 85.8786 500.028 75.1558L500.038 75.1401L500.049 75.1235C506.531 64.6637 515.762 56.1886 526.733 50.6255L526.74 50.6226L526.746 50.6187C537.406 45.1583 549.21 42.314 561.186 42.3198H561.218ZM561.754 45.1489C549.927 45.071 538.268 47.9499 527.836 53.5259L527.835 53.5269C517.342 59.1399 508.61 67.5522 502.607 77.8296C496.261 88.4913 493.146 100.905 493.14 114.946L493.139 118.447L496.64 118.448L626.307 118.465L629.854 118.466L629.807 114.918C629.603 99.9485 626.305 87.0383 619.732 76.355C613.245 65.8112 604.814 57.9049 594.438 52.7593H594.439C584.287 47.7059 573.093 45.099 561.754 45.1479V45.1489Z" fill="#453631" stroke="#453631" stroke-width="7" stroke-miterlimit="10"/>
<path d="M750.224 42.311C760.681 42.2797 770.991 44.7766 780.277 49.5884L780.285 49.5923L780.294 49.5962C789.569 54.3394 797.351 61.5579 802.78 70.4526L802.792 70.4722C808.196 79.201 811.055 89.6323 811.233 101.898L811.242 103.091V185.908C811.242 186.51 811.17 186.9 811.097 187.132C811.061 187.244 811.027 187.313 811.006 187.351C810.985 187.388 810.972 187.402 810.969 187.406C810.966 187.409 810.96 187.414 810.944 187.424C810.927 187.435 810.885 187.459 810.809 187.486C810.649 187.542 810.339 187.613 809.816 187.613H809.727L809.636 187.618C809.433 187.628 809.23 187.596 809.04 187.523C808.85 187.45 808.678 187.338 808.534 187.194C808.39 187.05 808.278 186.876 808.205 186.686C808.132 186.496 808.099 186.292 808.109 186.088L808.114 185.998V103.148C808.264 92.6152 805.479 82.2484 800.072 73.2095C795.052 64.8113 787.95 57.8583 779.461 53.019L778.635 52.5571C770.115 47.82 760.555 45.284 750.818 45.1714L749.891 45.1675C739.177 45.1675 728.517 48.1648 717.951 54.0122L717.942 54.0171C707.195 60.0026 698.149 68.6289 691.658 79.0815C690.909 80.2601 690.203 81.459 689.536 82.6753C692.38 74.4387 696.64 67.5837 702.279 62.0337L702.302 62.0112C708.813 55.4869 716.636 50.4213 725.251 47.1499L725.267 47.144L725.281 47.1382C733.235 44.0332 741.686 42.3977 750.224 42.311ZM678.144 46.604L678.143 46.5796C678.14 46.4095 678.173 46.2405 678.238 46.0835C678.304 45.9265 678.4 45.7844 678.522 45.6665L678.531 45.6587L678.54 45.6499C678.695 45.4983 678.879 45.3801 679.081 45.3022C679.283 45.2244 679.5 45.1882 679.716 45.1968L679.785 45.1997H679.854C680.372 45.1997 680.678 45.27 680.835 45.3257C680.91 45.3523 680.95 45.3752 680.968 45.3862C680.984 45.3965 680.991 45.4032 680.994 45.4067C680.998 45.4113 681.012 45.4268 681.033 45.4634C681.055 45.5025 681.089 45.5729 681.125 45.686C681.199 45.9202 681.271 46.3123 681.271 46.9146V112.904L681.376 112.508C681.307 113.9 681.27 115.307 681.271 116.729V183.905C681.271 184.51 681.199 184.903 681.125 185.137C681.089 185.25 681.055 185.32 681.033 185.359C681.012 185.396 680.998 185.411 680.995 185.415C680.992 185.418 680.987 185.423 680.972 185.433C680.955 185.444 680.915 185.467 680.839 185.494C680.681 185.549 680.374 185.62 679.854 185.62H679.765L679.675 185.624C679.471 185.634 679.266 185.602 679.075 185.529C678.884 185.455 678.71 185.343 678.565 185.198C678.421 185.053 678.308 184.879 678.234 184.687C678.161 184.495 678.128 184.29 678.139 184.085L678.144 183.995V46.604Z" fill="#453631" stroke="#453631" stroke-width="7" stroke-miterlimit="10"/>
<path d="M875.524 4.50684L875.515 4.37305C875.507 4.2728 875.523 4.17194 875.562 4.0791C875.589 4.01213 875.629 3.95073 875.677 3.89746C876.051 3.64519 876.492 3.50879 876.945 3.50879C877.394 3.50879 877.831 3.64292 878.203 3.89062C878.253 3.94688 878.295 4.01078 878.324 4.08105C878.365 4.17948 878.383 4.28638 878.375 4.39258L878.366 4.5166V45.2031H922.17L922.249 45.1992C922.89 45.1702 923.518 45.3869 924.006 45.8057L924.094 45.8809L924.186 45.9502C924.246 45.9954 924.295 46.0545 924.329 46.1221C924.363 46.1895 924.38 46.2642 924.38 46.3398C924.38 46.4157 924.363 46.491 924.329 46.5586C924.295 46.6262 924.246 46.6853 924.186 46.7305L924.09 46.8018L924 46.8799C923.518 47.2965 922.894 47.5117 922.258 47.4814L922.174 47.4775H878.366V139.878C878.366 153.109 880.429 164.023 884.842 172.357C889.732 181.593 899.392 185.674 912.254 185.654H912.31L912.365 185.652C918.894 185.436 925.302 183.833 931.163 180.948L931.234 180.913L931.305 180.874C931.509 180.762 931.741 180.71 931.974 180.727L932.13 180.738L932.287 180.734C932.678 180.727 933.057 180.869 933.347 181.132L933.402 181.182L933.459 181.229C933.513 181.274 933.558 181.33 933.588 181.395C933.617 181.456 933.631 181.522 933.633 181.59C933.631 181.732 933.599 181.885 933.414 182.128C933.184 182.429 932.698 182.88 931.743 183.397C925.717 186.449 919.045 188.001 912.291 187.92H912.249C898.145 187.92 889.079 183.482 883.948 175.365C878.436 166.643 875.524 154.907 875.524 139.878V47.5146H845.016L844.931 47.5186C844.301 47.5492 843.684 47.3363 843.207 46.9229L843.113 46.8418L843.015 46.7666C842.955 46.7215 842.906 46.6632 842.872 46.5957C842.838 46.5279 842.82 46.4526 842.82 46.377C842.82 46.3014 842.838 46.2269 842.872 46.1592C842.906 46.0914 842.955 46.0324 843.015 45.9873L843.11 45.916L843.2 45.8379C843.682 45.4222 844.304 45.2071 844.938 45.2363L845.02 45.2402H875.524V4.50684Z" fill="#453631" stroke="#453631" stroke-width="7" stroke-miterlimit="10"/>
<path d="M1029.51 42.293H1030.67C1042.44 42.3796 1054.03 45.1741 1064.54 50.4658V50.4648C1075.21 55.8373 1083.91 63.9587 1090.64 74.9346C1097.29 85.7822 1100.79 99.0804 1100.97 114.987L1100.97 115.136L1100.99 115.283C1101.13 116.818 1100.73 118.354 1099.84 119.613L1099.83 119.617C1099.4 120.233 1098.36 121.027 1095.46 121.027H961.265L961.745 124.953C963.083 135.886 966.937 146.36 973.005 155.551V155.552C979.126 164.841 987.509 172.419 997.364 177.574C1007.63 183.014 1019.1 185.791 1030.71 185.651L1030.71 185.65C1038.9 185.63 1047.03 184.299 1054.79 181.706L1054.79 181.705C1062.71 179.113 1070.15 175.216 1076.78 170.173L1076.82 170.143L1076.86 170.111C1077.35 169.721 1077.94 169.487 1078.56 169.438C1078.92 169.445 1079.27 169.583 1079.55 169.83L1079.61 169.888L1079.68 169.941C1079.73 169.985 1079.77 170.04 1079.8 170.103C1079.82 170.151 1079.84 170.203 1079.84 170.257C1079.82 170.577 1079.74 170.891 1079.61 171.182C1079.46 171.498 1079.25 171.782 1078.99 172.015L1078.97 172.034L1078.95 172.053C1072.93 177.625 1065.77 181.812 1057.96 184.319L1057.95 184.324L1057.94 184.328C1049.69 187.049 1041.08 188.456 1032.4 188.499H1031.55C1017.44 188.499 1004.83 185.251 993.629 178.812L993.619 178.807L993.609 178.802L992.584 178.209C982.05 172.001 973.367 163.073 967.453 152.351L967.446 152.339C961.202 141.122 958.053 128.588 958.047 114.662C958.047 98.9738 961.543 85.8534 968.357 75.1309L968.379 75.0957C974.858 64.6345 984.09 56.1598 995.062 50.5996L995.076 50.5918C1005.73 45.1307 1017.53 42.2862 1029.51 42.293ZM1030.04 45.1494C1018.21 45.0715 1006.55 47.9514 996.119 53.5273L996.117 53.5283C985.629 59.1425 976.9 67.5539 970.9 77.8291C964.547 88.4915 961.433 100.907 961.433 114.948V118.448H964.933L1094.59 118.467L1098.14 118.468L1098.09 114.919C1097.89 99.9491 1094.59 87.0397 1088.02 76.3564C1081.53 65.8128 1073.1 57.9064 1062.72 52.7607H1062.72C1052.58 47.7129 1041.4 45.1066 1030.08 45.1494H1030.04Z" fill="#453631" stroke="#453631" stroke-width="7" stroke-miterlimit="10"/>
<path d="M1146.41 4.9082L1146.41 4.88379C1146.41 4.71364 1146.44 4.54475 1146.51 4.3877C1146.57 4.23052 1146.67 4.08847 1146.79 3.9707L1146.8 3.96289L1146.81 3.9541C1146.96 3.80214 1147.15 3.68327 1147.35 3.60547C1147.55 3.52772 1147.77 3.49202 1147.99 3.50098L1148.08 3.50586L1148.18 3.50391C1148.35 3.50162 1148.51 3.53426 1148.67 3.59863C1148.82 3.66304 1148.96 3.75812 1149.08 3.87891L1149.12 3.92188L1149.16 3.96289C1149.29 4.08372 1149.38 4.22854 1149.45 4.38867C1149.52 4.5491 1149.55 4.7218 1149.55 4.89551V184.224C1149.55 184.393 1149.52 184.561 1149.45 184.718C1149.39 184.874 1149.29 185.016 1149.17 185.134L1149.12 185.179L1149.08 185.226C1148.96 185.346 1148.82 185.442 1148.67 185.507C1148.51 185.571 1148.35 185.603 1148.18 185.601L1148.08 185.6L1147.99 185.604C1147.77 185.612 1147.55 185.577 1147.35 185.499C1147.15 185.421 1146.96 185.302 1146.81 185.15L1146.8 185.139L1146.79 185.128L1146.7 185.037C1146.62 184.942 1146.55 184.834 1146.51 184.719C1146.44 184.565 1146.41 184.399 1146.41 184.232L1146.41 184.207V4.9082Z" fill="#453631" stroke="#453631" stroke-width="7" stroke-miterlimit="10"/>
<path d="M1203.15 4.9082L1203.15 4.88379C1203.14 4.71327 1203.18 4.54434 1203.24 4.3877C1203.31 4.23088 1203.4 4.08868 1203.53 3.9707L1203.54 3.95996L1203.55 3.94824C1203.7 3.79788 1203.88 3.68138 1204.08 3.60449C1204.28 3.52761 1204.5 3.49195 1204.71 3.50098L1204.77 3.50391L1204.84 3.50488C1205.22 3.50705 1205.58 3.65919 1205.85 3.92871C1206.12 4.19834 1206.27 4.56343 1206.27 4.94531V184.207L1206.28 184.232C1206.28 184.399 1206.24 184.565 1206.18 184.719C1206.12 184.873 1206.02 185.012 1205.9 185.128L1205.85 185.177L1205.8 185.228C1205.69 185.348 1205.55 185.443 1205.39 185.507C1205.24 185.571 1205.08 185.603 1204.91 185.601L1204.81 185.6L1204.71 185.604C1204.5 185.613 1204.28 185.578 1204.08 185.501C1203.88 185.424 1203.7 185.307 1203.55 185.156L1203.54 185.142L1203.52 185.128L1203.43 185.037C1203.35 184.942 1203.29 184.834 1203.24 184.719C1203.18 184.565 1203.14 184.4 1203.15 184.232L1203.15 184.207V4.9082Z" fill="#453631" stroke="#453631" stroke-width="7" stroke-miterlimit="10"/>
<path d="M1325 42.293H1326.17C1337.93 42.3805 1349.52 45.1741 1360.04 50.4648C1370.7 55.8372 1379.4 63.9582 1386.12 74.9336C1392.77 85.782 1396.27 99.0813 1396.45 114.989L1396.45 115.137L1396.47 115.283C1396.62 116.818 1396.21 118.354 1395.32 119.613L1395.31 119.622C1394.89 120.234 1393.84 121.027 1390.95 121.027H1256.75L1257.23 124.954C1258.57 135.886 1262.42 146.359 1268.49 155.552V155.553C1274.61 164.834 1282.98 172.408 1292.83 177.565V177.566C1303.1 183.01 1314.58 185.79 1326.2 185.651L1326.2 185.65C1334.38 185.629 1342.5 184.3 1350.25 181.713L1350.25 181.714C1358.18 179.123 1365.63 175.222 1372.27 170.172L1372.31 170.143L1372.35 170.111C1372.83 169.72 1373.42 169.487 1374.04 169.438C1374.41 169.444 1374.77 169.582 1375.04 169.831L1375.1 169.882L1375.15 169.93C1375.21 169.975 1375.25 170.032 1375.28 170.097C1375.31 170.147 1375.32 170.201 1375.32 170.257C1375.3 170.577 1375.23 170.891 1375.09 171.182C1374.94 171.498 1374.73 171.782 1374.47 172.015L1374.45 172.033L1374.43 172.053C1368.42 177.623 1361.26 181.81 1353.45 184.32L1353.43 184.328C1345.18 187.049 1336.57 188.456 1327.89 188.499H1327.03C1312.93 188.499 1300.31 185.251 1289.11 178.812L1289.1 178.807L1289.09 178.802L1288.07 178.209C1277.53 172.001 1268.85 163.073 1262.94 152.351L1262.93 152.344L1262.93 152.338L1262.35 151.282C1256.49 140.337 1253.53 128.154 1253.54 114.664V114.662C1253.54 98.9732 1257.03 85.8517 1263.84 75.1289L1263.85 75.1133L1263.86 75.0967C1270.34 64.6369 1279.57 56.1617 1290.55 50.5986L1290.55 50.5957L1290.56 50.5918C1301.22 45.1298 1313.02 42.2851 1325 42.293ZM1325.52 45.1494C1313.69 45.0728 1302.03 47.9527 1291.6 53.5273L1291.6 53.5283C1281.11 59.1423 1272.38 67.5534 1266.38 77.8281C1260.02 88.4914 1256.91 100.907 1256.92 114.95L1256.92 118.448H1260.42L1390.07 118.467L1393.62 118.468L1393.57 114.919C1393.37 99.9497 1390.07 87.0405 1383.51 76.3574C1377.23 66.1402 1369.12 58.3998 1359.17 53.248L1358.2 52.7578C1348.05 47.7061 1336.86 45.1004 1325.52 45.1494Z" fill="#453631" stroke="#453631" stroke-width="7" stroke-miterlimit="10"/>
</svg>
