<svg width="14" height="16" viewBox="0 0 14 16" fill="none" xmlns="http://www.w3.org/2000/svg">
<path d="M1.49232 13.7033C2.29232 14.6667 3.78032 14.6667 6.75765 14.6667H7.23765C10.215 14.6667 11.7036 14.6667 12.5036 13.7033M1.49232 13.7033C0.692315 12.7393 0.966982 11.2767 1.51565 8.35C1.90565 6.27 2.10032 5.22933 2.84098 4.61467M12.5036 13.7033C13.3036 12.7393 13.029 11.2767 12.4803 8.35C12.0903 6.27 11.895 5.22933 11.1543 4.61467M11.1543 4.61467C10.4143 4 9.35498 4 7.23832 4H6.75698C4.64032 4 3.58165 4 2.84098 4.61467" stroke="#453631"/>
<path d="M5 4.0026V3.33594C5 2.8055 5.21071 2.2968 5.58579 1.92172C5.96086 1.54665 6.46957 1.33594 7 1.33594C7.53043 1.33594 8.03914 1.54665 8.41421 1.92172C8.78929 2.2968 9 2.8055 9 3.33594V4.0026" stroke="#453631" stroke-linecap="round"/>
</svg>
