<svg width="107" height="40" viewBox="0 0 107 40" fill="none" xmlns="http://www.w3.org/2000/svg">
<path d="M18.7024 39.822C17.6137 39.8287 16.5333 39.6311 15.5167 39.2394C14.5041 38.8449 13.8574 38.1689 13.5949 37.2311C13.5705 37.1704 13.5641 37.1039 13.5765 37.0396C13.5889 36.9754 13.6195 36.9161 13.6647 36.8689C13.7038 36.8249 13.7517 36.7897 13.8052 36.7655C13.8588 36.7414 13.9168 36.7287 13.9754 36.7285C14.0575 36.7284 14.1377 36.7528 14.2059 36.7987C14.2446 36.8252 14.2775 36.8592 14.3028 36.8988C14.3281 36.9384 14.3453 36.9826 14.3532 37.029C14.5083 37.5681 14.8421 37.9752 15.3637 38.2777C15.8974 38.586 16.4792 38.801 17.0844 38.9137C17.6173 39.0194 18.1586 39.0767 18.7017 39.085C19.358 39.0829 20.0113 38.9968 20.6459 38.8288C21.2479 38.6802 21.8069 38.3917 22.2778 37.9864C22.7136 37.6032 22.9259 37.1062 22.9259 36.4674C22.9259 35.9129 22.752 35.5022 22.3945 35.2123C21.9956 34.9006 21.5252 34.6947 21.0264 34.6135C20.4678 34.5104 19.7073 34.4177 18.7604 34.3377C17.7024 34.257 16.8414 34.1482 16.1996 34.0141C15.5791 33.8944 15.001 33.6124 14.5236 33.1963C14.0544 32.78 13.8162 32.1708 13.8162 31.3846C13.8162 30.6215 14.0921 29.9891 14.6354 29.5033C15.1777 29.0234 15.823 28.6758 16.5208 28.4876C17.1687 28.2988 17.8387 28.198 18.5132 28.1879C19.5176 28.1784 20.5159 28.3447 21.4636 28.6792C22.3875 29.0148 23.0132 29.6121 23.3246 30.4538C23.3488 30.5179 23.3632 30.5854 23.3672 30.6538C23.3686 30.7026 23.3593 30.7511 23.34 30.7958C23.3207 30.8406 23.2918 30.8805 23.2555 30.9129C23.1849 30.9744 23.094 31.0072 23.0006 31.0048C22.9141 31.0091 22.8287 30.9847 22.7574 30.9352C22.6862 30.8857 22.6333 30.8139 22.6068 30.7311C22.1801 29.5546 20.8086 28.9579 18.5306 28.9579C17.8988 28.9583 17.271 29.0588 16.6703 29.2555C16.1173 29.4236 15.611 29.7192 15.1919 30.119C14.8169 30.491 14.6333 30.91 14.6333 31.3993C14.6333 31.9665 14.8072 32.382 15.1647 32.6719C15.5671 32.9855 16.0404 33.1944 16.5425 33.2798C17.3065 33.413 18.0769 33.5067 18.8505 33.5606C19.9098 33.6533 20.7653 33.7712 21.3945 33.9018C22.0027 34.0204 22.5709 34.2924 23.046 34.6922C23.5104 35.0916 23.7443 35.6812 23.7443 36.447C23.7443 37.2774 23.479 37.9534 22.9552 38.4553C22.4141 38.9626 21.7546 39.3247 21.0376 39.5083C20.2763 39.7156 19.4912 39.8211 18.7024 39.822Z" fill="#453631" stroke="#453631" stroke-width="0.48" stroke-miterlimit="10"/>
<path d="M8.65073 29.0112C9.38117 29.5031 9.91446 30.1968 10.2506 31.0925V28.8898C10.2506 28.6259 10.3749 28.4932 10.6228 28.4932C10.6753 28.4905 10.7278 28.4989 10.7769 28.5178C10.826 28.5368 10.8706 28.5659 10.9078 28.6033C10.945 28.6407 10.974 28.6855 10.9928 28.7349C11.0117 28.7842 11.0201 28.837 11.0174 28.8898V39.3096C11.0201 39.3624 11.0117 39.4151 10.9928 39.4645C10.974 39.5138 10.945 39.5587 10.9078 39.5961C10.8706 39.6334 10.826 39.6626 10.7769 39.6815C10.7278 39.7005 10.6753 39.7089 10.6228 39.7062C10.3751 39.7062 10.2511 39.574 10.2506 39.3096V37.1939C9.91446 38.0896 9.36674 38.7681 8.60743 39.2295C7.84812 39.691 6.95682 39.9224 5.93354 39.9238C4.96974 39.931 4.0199 39.6922 3.17306 39.2295C2.31792 38.7602 1.61168 38.0581 1.13535 37.2037C0.62324 36.3146 0.367188 35.2682 0.367188 34.0646C0.367188 32.861 0.629991 31.8186 1.1556 30.9374C1.6507 30.0858 2.37755 29.3941 3.25057 28.9438C4.10669 28.4997 5.05675 28.2698 6.02013 28.2735C7.04434 28.2735 7.92121 28.5194 8.65073 29.0112ZM10.2506 33.185C10.2506 32.3338 10.0606 31.5923 9.68076 30.9606C9.31695 30.3443 8.78334 29.8472 8.14444 29.5293C7.49821 29.2051 6.78495 29.0389 6.06273 29.0442C5.03852 29.0442 4.15397 29.2681 3.40909 29.716C2.68129 30.1455 2.09174 30.7764 1.71077 31.5333C1.32333 32.3337 1.1248 33.2132 1.13061 34.1033C1.13642 34.9934 1.34643 35.8701 1.74429 36.6653C2.12589 37.4131 2.70101 38.0436 3.40909 38.4904C4.11171 38.9318 4.92557 39.1613 5.75407 39.1516C6.5089 39.1555 7.25591 38.9978 7.94542 38.689C8.61592 38.3931 9.19205 37.9168 9.61022 37.3125C10.0334 36.7042 10.2452 35.9662 10.2457 35.0986L10.2506 33.185Z" fill="#453631" stroke="#453631" stroke-width="0.48" stroke-miterlimit="10"/>
<path d="M31.0205 29.0007C30.1845 28.9939 29.3612 29.2066 28.6322 29.6177C27.8953 30.035 27.2911 30.6537 26.8899 31.4021C26.4592 32.1799 26.2437 33.0975 26.2432 34.1551C26.2432 35.1098 26.4478 35.9688 26.857 36.732C27.2537 37.483 27.8539 38.1055 28.5882 38.5276C29.3331 38.96 30.1731 39.1764 31.1084 39.1769C31.8114 39.1797 32.5066 39.0293 33.1462 38.7361C33.7816 38.4484 34.338 38.01 34.7677 37.4585C34.7967 37.4124 34.8351 37.3729 34.8803 37.3426C34.9256 37.3124 34.9767 37.2921 35.0302 37.283H35.0742C35.2642 37.283 35.3957 37.4 35.4688 37.634C35.4688 37.7814 35.4395 37.8839 35.3808 37.9429C34.8755 38.584 34.221 39.0902 33.4751 39.417C32.7245 39.7531 31.9119 39.9265 31.0903 39.9259C29.9948 39.9259 29.0197 39.6725 28.165 39.1657C27.3214 38.6711 26.6311 37.9505 26.1713 37.0844C25.6964 36.2037 25.459 35.2209 25.459 34.1362C25.459 32.9911 25.6918 31.9744 26.1573 31.0862C26.6095 30.2135 27.3066 29.4935 28.1622 29.0155C29.0309 28.5241 30.05 28.2782 31.2195 28.2777C31.9523 28.2688 32.6779 28.423 33.3445 28.7291C33.9874 29.0304 34.5926 29.5115 35.1601 30.1723C35.2139 30.2331 35.245 30.3107 35.2481 30.392V30.4362C35.2506 30.5319 35.2194 30.6253 35.1601 30.7001C35.1306 30.7371 35.0942 30.7678 35.0528 30.7906C35.0115 30.8134 34.9661 30.8277 34.9192 30.8328H34.8612C34.8041 30.8369 34.7469 30.8245 34.6965 30.7971C34.646 30.7698 34.6044 30.7286 34.5763 30.6784C33.6103 29.5599 32.425 29.0007 31.0205 29.0007Z" fill="#453631" stroke="#453631" stroke-width="0.48" stroke-miterlimit="10"/>
<path d="M48.3983 34.5723C48.2963 34.7192 48.1138 34.7927 47.8508 34.7927H37.9904C38.0864 35.5836 38.364 36.3413 38.8012 37.0059C39.2388 37.6742 39.8381 38.2198 40.5428 38.5916C41.2815 38.9849 42.1065 39.1857 42.9423 39.1757C43.5346 39.1738 44.1228 39.0767 44.6846 38.8879C45.2568 38.6998 45.7937 38.417 46.2733 38.0511C46.3542 37.9854 46.4536 37.9469 46.5575 37.9409C46.6546 37.939 46.7488 37.9744 46.8208 38.0399C46.8548 38.0681 46.8823 38.1034 46.9013 38.1434C46.9202 38.1835 46.9302 38.2272 46.9304 38.2716C46.9283 38.3341 46.9136 38.3956 46.8872 38.4523C46.8608 38.509 46.8232 38.5598 46.7768 38.6015C46.2932 39.0518 45.7173 39.3902 45.0896 39.5926C44.4183 39.8153 43.7155 39.9269 43.0086 39.9232C41.8983 39.9232 40.8973 39.6659 40.0058 39.1511C39.1303 38.6537 38.4096 37.9214 37.9241 37.0361C37.4278 36.1423 37.1797 35.1451 37.1797 34.0444C37.1797 32.8108 37.4534 31.761 38.0009 30.8947C38.5172 30.0577 39.2526 29.3794 40.1266 28.9342C40.9711 28.4996 41.9063 28.2732 42.855 28.2737C43.8168 28.2654 44.7667 28.487 45.6266 28.9202C46.4814 29.3544 47.1758 30.0096 47.7097 30.8856C48.2437 31.7617 48.5177 32.8225 48.5317 34.0683C48.5477 34.2468 48.5005 34.4253 48.3983 34.5723ZM47.7852 34.0655C47.7703 32.9639 47.5291 32.0314 47.0617 31.2682C46.5943 30.5049 45.9919 29.9396 45.2544 29.5723C44.5228 29.2064 43.7161 29.0177 42.899 29.0212C42.0467 29.0151 41.2065 29.2234 40.4548 29.627C39.703 30.0311 39.0774 30.6369 38.6476 31.377C38.1951 32.1407 37.9686 33.0364 37.9681 34.0641L47.7852 34.0655Z" fill="#453631" stroke="#453631" stroke-width="0.48" stroke-miterlimit="10"/>
<path d="M60.7127 31.0265C60.3445 30.4077 59.8188 29.8989 59.1897 29.5524C58.5632 29.2022 57.8576 29.0199 57.1408 29.0231C56.381 29.0231 55.6178 29.2363 54.851 29.6626C54.0758 30.0963 53.4235 30.7216 52.9557 31.4793C52.4585 32.2655 52.2102 33.1724 52.2106 34.2V39.3095C52.2106 39.5739 52.0866 39.7062 51.8384 39.7062C51.7859 39.7089 51.7334 39.7005 51.6843 39.6815C51.6352 39.6625 51.5906 39.6334 51.5534 39.596C51.5162 39.5587 51.4872 39.5138 51.4684 39.4645C51.4495 39.4151 51.4411 39.3623 51.4439 39.3095V28.868C51.4432 28.8187 51.4526 28.7698 51.4714 28.7243C51.4903 28.6788 51.5182 28.6376 51.5535 28.6034C51.591 28.5665 51.6356 28.5377 51.6846 28.5187C51.7336 28.4998 51.786 28.4911 51.8384 28.4932C52.0863 28.4932 52.2106 28.6258 52.2106 28.8898V31.8857C52.4299 31.063 52.8098 30.3845 53.3503 29.85C53.8698 29.3271 54.4939 28.9211 55.1813 28.6588C55.8135 28.4109 56.4852 28.2803 57.1638 28.2735C57.9987 28.2707 58.8219 28.4708 59.5633 28.8568C60.309 29.2399 60.9348 29.823 61.3713 30.5415C61.8238 31.2757 62.0503 32.1494 62.0507 33.1626V39.4619C62.0507 39.7258 61.9264 39.8578 61.6778 39.8578C61.6254 39.8605 61.573 39.8521 61.524 39.8332C61.4749 39.8143 61.4304 39.7852 61.3933 39.7479C61.3562 39.7105 61.3273 39.6658 61.3084 39.6165C61.2896 39.5673 61.2813 39.5146 61.284 39.4619V33.1633C61.2946 32.4115 61.0968 31.6716 60.7127 31.0265Z" fill="#453631" stroke="#453631" stroke-width="0.48" stroke-miterlimit="10"/>
<path d="M70.4964 28.6038C70.5338 28.6321 70.5642 28.6687 70.5851 28.7108C70.6061 28.7529 70.617 28.7993 70.617 28.8463C70.617 28.8934 70.6061 28.9398 70.5851 28.9819C70.5642 29.024 70.5338 29.0606 70.4964 29.0889C70.4084 29.1652 70.2947 29.2046 70.1787 29.1991H67.1333V35.961C67.1333 36.9437 67.2864 37.7257 67.5928 38.3069C67.8991 38.8881 68.5127 39.178 69.4335 39.1766C69.8902 39.1614 70.3385 39.0487 70.7485 38.846C70.8086 38.8127 70.877 38.7976 70.9454 38.8025C71.0425 38.8005 71.1367 38.8359 71.2087 38.9014C71.2425 38.9296 71.2697 38.9649 71.2885 39.0048C71.3074 39.0447 71.3173 39.0882 71.3176 39.1324C71.3176 39.2798 71.2226 39.404 71.0334 39.5065C70.538 39.7594 69.9891 39.888 69.4335 39.8814C68.3083 39.8814 67.5194 39.5217 67.0669 38.8025C66.6144 38.0832 66.3881 37.136 66.3881 35.961V29.2019H64.3497C64.2339 29.2075 64.1203 29.1681 64.0327 29.0917C63.9952 29.0634 63.9649 29.0268 63.9439 28.9847C63.923 28.9426 63.9121 28.8962 63.9121 28.8491C63.9121 28.8021 63.923 28.7557 63.9439 28.7136C63.9649 28.6715 63.9952 28.6349 64.0327 28.6066C64.1205 28.5305 64.2339 28.491 64.3497 28.4964H66.3881V25.6746C66.3844 25.625 66.3923 25.5752 66.4114 25.5293C66.4304 25.4835 66.46 25.4428 66.4978 25.4106C66.5736 25.3533 66.6658 25.3223 66.7607 25.3223C66.8556 25.3223 66.9478 25.3533 67.0236 25.4106C67.0611 25.443 67.0906 25.4837 67.1096 25.5295C67.1287 25.5753 67.1368 25.625 67.1333 25.6746V28.4936H70.1787C70.2947 28.4883 70.4083 28.5277 70.4964 28.6038Z" fill="#453631" stroke="#453631" stroke-width="0.48" stroke-miterlimit="10"/>
<path d="M83.8532 34.5724C83.7506 34.7191 83.5683 34.7928 83.305 34.7928H73.4447C73.541 35.5836 73.8185 36.3413 74.2554 37.006C74.6942 37.6749 75.2949 38.2206 76.0013 38.5917C76.7396 38.9851 77.5644 39.1859 78.4 39.1758C78.9923 39.1745 79.5805 39.0778 80.1423 38.8894C80.7146 38.7014 81.2516 38.4186 81.731 38.0526C81.8122 37.9869 81.9118 37.9484 82.0159 37.9424C82.1128 37.9406 82.2067 37.976 82.2785 38.0414C82.3126 38.0696 82.3401 38.1049 82.359 38.1449C82.378 38.185 82.3879 38.2287 82.3881 38.2731C82.3862 38.3356 82.3716 38.3971 82.3453 38.4538C82.319 38.5105 82.2816 38.5612 82.2352 38.603C81.7513 39.0532 81.1752 39.3915 80.5474 39.5941C79.876 39.8168 79.1732 39.9284 78.4663 39.9248C77.356 39.9248 76.3551 39.6674 75.4635 39.1526C74.5884 38.6548 73.8677 37.9226 73.3818 37.0376C72.8856 36.1419 72.6372 35.1435 72.6367 34.0424C72.6367 32.8088 72.9107 31.7589 73.4586 30.8927C73.9748 30.0555 74.7102 29.3772 75.5844 28.9322C76.4285 28.4975 77.3635 28.2711 78.312 28.2717C79.2741 28.2644 80.2241 28.4872 81.0837 28.9217C81.9384 29.3541 82.6326 30.0073 83.1661 30.8815C83.6996 31.7557 83.9733 32.8166 83.9873 34.0642C84.0045 34.2442 83.957 34.4245 83.8532 34.5724ZM83.2394 34.0656C83.2245 32.964 82.9834 32.0315 82.5159 31.2683C82.0485 30.505 81.4461 29.9397 80.7087 29.5724C79.977 29.2065 79.1704 29.0178 78.3532 29.0213C77.501 29.0152 76.6608 29.2235 75.9091 29.6271C75.1575 30.0313 74.5321 30.6371 74.1025 31.3771C73.6495 32.1408 73.423 33.0365 73.423 34.0642L83.2394 34.0656Z" fill="#453631" stroke="#453631" stroke-width="0.48" stroke-miterlimit="10"/>
<path d="M87.5543 39.5934C87.5204 39.6289 87.4796 39.657 87.4344 39.6759C87.3893 39.6949 87.3407 39.7043 87.2918 39.7036C87.2392 39.7058 87.1867 39.6972 87.1376 39.6782C87.0885 39.6593 87.0438 39.6304 87.0062 39.5934C86.9708 39.5593 86.9429 39.5183 86.924 39.4729C86.9052 39.4275 86.8958 39.3787 86.8965 39.3295V25.6955C86.8958 25.6462 86.9052 25.5973 86.9241 25.5518C86.9429 25.5062 86.9709 25.4651 87.0062 25.4309C87.0438 25.3939 87.0885 25.365 87.1376 25.346C87.1867 25.3271 87.2392 25.3185 87.2918 25.3206C87.3407 25.32 87.3893 25.3294 87.4344 25.3484C87.4796 25.3673 87.5204 25.3954 87.5543 25.4309C87.5895 25.4652 87.6174 25.5064 87.6362 25.5519C87.655 25.5973 87.6645 25.6462 87.664 25.6955V39.3295C87.6646 39.3787 87.6551 39.4275 87.6363 39.4728C87.6174 39.5182 87.5895 39.5593 87.5543 39.5934Z" fill="#453631" stroke="#453631" stroke-width="0.48" stroke-miterlimit="10"/>
<path d="M91.8486 39.5934C91.8147 39.6289 91.7739 39.657 91.7287 39.676C91.6835 39.6949 91.6349 39.7044 91.586 39.7036C91.5335 39.7059 91.4812 39.6972 91.4321 39.6783C91.3831 39.6593 91.3385 39.6304 91.3011 39.5934C91.2658 39.5594 91.2378 39.5183 91.219 39.4729C91.2001 39.4275 91.1907 39.3787 91.1914 39.3295V25.6955C91.1908 25.6462 91.2001 25.5973 91.219 25.5518C91.2378 25.5062 91.2658 25.4651 91.3011 25.4309C91.3385 25.3939 91.3831 25.365 91.4321 25.346C91.4812 25.3271 91.5335 25.3184 91.586 25.3207C91.6847 25.3212 91.7791 25.3609 91.8488 25.4311C91.9185 25.5013 91.9578 25.5963 91.9582 25.6955V39.3295C91.9589 39.3787 91.9495 39.4275 91.9307 39.4729C91.9118 39.5183 91.8839 39.5594 91.8486 39.5934Z" fill="#453631" stroke="#453631" stroke-width="0.48" stroke-miterlimit="10"/>
<path d="M106.224 34.5724C106.121 34.7193 105.939 34.7928 105.676 34.7928H95.8151C95.9117 35.5836 96.1892 36.3411 96.6258 37.006C97.0647 37.6748 97.6654 38.2204 98.3716 38.5917C99.1103 38.985 99.9353 39.1858 100.771 39.1758C101.363 39.1745 101.951 39.0778 102.513 38.8894C103.085 38.7016 103.622 38.4187 104.101 38.0526C104.183 37.9869 104.282 37.9484 104.386 37.9424C104.483 37.9405 104.578 37.9759 104.65 38.0414C104.683 38.0697 104.711 38.1051 104.73 38.1451C104.748 38.1851 104.758 38.2288 104.759 38.2731C104.757 38.3356 104.742 38.3971 104.716 38.4538C104.689 38.5105 104.652 38.5612 104.606 38.603C104.122 39.053 103.546 39.3913 102.918 39.5941C102.247 39.8168 101.544 39.9284 100.837 39.9247C99.7264 39.9247 98.7255 39.6674 97.8339 39.1526C96.9587 38.6548 96.2381 37.9226 95.7522 37.0376C95.2555 36.1419 95.0073 35.1435 95.0078 34.0424C95.0078 32.8088 95.2815 31.7589 95.829 30.8927C96.3454 30.0557 97.0807 29.3774 97.9547 28.9322C98.7991 28.4974 99.7344 28.271 100.683 28.2717C101.645 28.2645 102.595 28.4873 103.455 28.9217C104.31 29.3541 105.003 30.0073 105.536 30.8815C106.07 31.7557 106.343 32.8166 106.358 34.0642C106.375 34.2442 106.327 34.4245 106.224 34.5724ZM105.61 34.0656C105.595 32.964 105.354 32.0315 104.887 31.2683C104.42 30.505 103.817 29.9397 103.079 29.5724C102.347 29.2065 101.541 29.0178 100.724 29.0213C99.8714 29.0153 99.0312 29.2235 98.2795 29.6271C97.5279 30.0313 96.9025 30.6371 96.4729 31.3771C96.0195 32.1408 95.793 33.0365 95.7934 34.0642L105.61 34.0656Z" fill="#453631" stroke="#453631" stroke-width="0.48" stroke-miterlimit="10"/>
<path d="M62.1492 17.0799H58.3817H57.6429C59.3426 16.7387 60.6457 15.9118 61.6087 14.5353C61.6485 14.4777 61.6883 14.4195 61.7274 14.3612C62.5473 13.13 63.0487 11.3393 63.0487 9.61252C63.0526 7.97105 62.6644 6.35262 61.9167 4.8933C61.1667 3.42412 60.0396 2.22589 58.5647 1.33932C57.0898 0.452759 55.321 0 53.2958 0C51.2707 0 49.4928 0.43872 48.0053 1.30423C46.5179 2.16973 45.3719 3.33286 44.5982 4.76555C43.8211 6.2071 43.4192 7.82275 43.4299 9.4623C43.4299 11.1926 43.8217 12.7194 44.594 14.0018C44.6261 14.0552 44.6589 14.1078 44.6925 14.1598C45.6143 15.6107 47.1813 16.7766 48.7567 17.023L49.0018 17.0813H47.9474H44.3286C43.962 17.0813 43.8063 17.2273 43.8063 17.5726C43.8014 17.6428 43.8116 17.7132 43.8361 17.7791C43.8607 17.845 43.899 17.9048 43.9485 17.9546C43.998 18.0043 44.0576 18.0427 44.1232 18.0673C44.1888 18.0919 44.2588 18.102 44.3286 18.097H62.1492C62.219 18.102 62.2891 18.0919 62.3547 18.0673C62.4203 18.0427 62.4798 18.0043 62.5293 17.9546C62.5789 17.9048 62.6172 17.845 62.6417 17.7791C62.6663 17.7132 62.6764 17.6428 62.6716 17.5726C62.6716 17.2259 62.5137 17.0799 62.1492 17.0799ZM60.8706 5.02738C61.6478 6.33371 62.0417 7.90538 62.0417 9.68974C62.038 10.9607 61.7489 12.2144 61.196 13.3574C60.6632 14.4806 59.3999 15.7679 58.6883 16.0726C58.6847 16.0744 58.6812 16.0765 58.6778 16.0789C58.8175 15.9563 58.95 15.8264 59.0752 15.6893C59.754 14.9537 60.0975 13.9604 60.0975 12.7362C60.0975 11.6194 59.7973 10.7609 59.2051 10.1853C58.6004 9.60318 57.8497 9.19724 57.0333 9.01095C56.1827 8.80738 55.0228 8.6319 53.5856 8.4894C52.2588 8.36515 51.1911 8.21704 50.4173 8.04787C49.6436 7.8787 48.983 7.54949 48.4578 7.06514C47.9327 6.58079 47.6666 5.87182 47.6666 4.94735C47.6607 4.1648 47.9504 3.40914 48.4774 2.83308C49.0179 2.2287 49.7204 1.764 50.5661 1.45234C50.9397 1.31513 51.3233 1.20718 51.7134 1.12944C52.2372 1.05017 52.7662 1.01075 53.2958 1.01151C54.5885 1.00144 55.8703 1.24958 57.0668 1.74154C57.9858 2.2184 58.5954 2.92199 58.8957 3.85231C58.9565 4.04324 59.0794 4.14011 59.2609 4.14011C59.3029 4.14142 59.3446 4.13412 59.3836 4.11868C59.4226 4.10323 59.4581 4.07995 59.4879 4.05026C59.5194 4.01695 59.5439 3.97758 59.5598 3.93451C59.5758 3.89144 59.5829 3.84557 59.5808 3.79966C59.5754 3.71813 59.5595 3.63766 59.5333 3.5603C59.4949 3.44167 59.4509 3.32795 59.4048 3.21564C59.9793 3.74388 60.4732 4.35436 60.8706 5.02738ZM47.6492 15.9539C46.5927 15.214 45.7595 14.1956 45.2414 13.0107C44.705 11.7987 44.4305 10.4862 44.4362 9.15976C44.4362 7.64706 44.8245 6.25579 45.5905 5.02457C46.0592 4.27195 46.6492 3.60297 47.3363 3.04506C47.057 3.59048 46.9173 4.21873 46.9173 4.92349C46.9173 6.07679 47.2218 6.96687 47.8217 7.56844C48.4287 8.17456 49.194 8.59558 50.0291 8.78281C50.8964 8.98708 52.0633 9.15344 53.4998 9.27418C54.7979 9.39843 55.844 9.54233 56.6094 9.70237C57.3321 9.8423 58.0035 10.1766 58.5521 10.6697C59.0766 11.1505 59.3426 11.8539 59.3426 12.7608C59.3426 13.7919 59.0256 14.6308 58.3992 15.2534C57.7556 15.886 56.9648 16.3469 56.0989 16.5941C55.2225 16.8569 54.3131 16.9921 53.3985 16.9956C52.6449 16.9828 51.8946 16.8932 51.159 16.7282C50.3035 16.5451 49.489 16.2045 48.7567 15.7237C48.0222 15.2604 47.4962 14.5277 47.2902 13.681V13.6663C47.2855 13.6216 47.272 13.5782 47.2504 13.5388C47.2288 13.4994 47.1996 13.4647 47.1645 13.4368C47.1036 13.3873 47.0278 13.3598 46.9495 13.3588C46.8931 13.3606 46.8379 13.3757 46.7884 13.4029C46.7389 13.4301 46.6965 13.4686 46.6645 13.5154C46.6231 13.5655 46.5957 13.6258 46.5853 13.6901C46.5748 13.7544 46.5817 13.8204 46.6052 13.8811V13.8916C46.8475 14.8624 47.3 15.6107 48.0312 16.1919C47.8873 16.1077 47.7861 16.0501 47.6492 15.9539Z" fill="#453631"/>
</svg>
