<svg width="14" height="14" viewBox="0 0 14 14" fill="none" xmlns="http://www.w3.org/2000/svg">
<path d="M0.466015 7.07065C0.700301 7.29836 0.934586 7.37208 1.39687 7.37865L6.46601 7.39865C6.51287 7.39865 6.55287 7.40551 6.57316 7.42551C6.59316 7.44551 6.59973 7.48579 6.59973 7.53265L6.61973 12.6021C6.62659 13.0641 6.7003 13.2984 6.93459 13.5326C7.24944 13.8541 7.69144 13.8006 8.01944 13.4792C8.19373 13.3049 8.3343 13.0172 8.46144 12.7492L13.5843 1.70036C13.852 1.13808 13.8186 0.722649 13.5443 0.454649C13.276 0.180363 12.8609 0.146935 12.2986 0.414649L1.24944 5.53751C0.981443 5.66465 0.693729 5.80522 0.519443 5.97951C0.198015 6.30751 0.144586 6.74922 0.466015 7.07065ZM1.82544 6.36122C1.81859 6.34122 1.83201 6.32122 1.8723 6.30094L12.4726 1.43179C12.5263 1.41179 12.5529 1.41179 12.5732 1.42522C12.5866 1.44522 12.5866 1.47208 12.5663 1.52579L7.6983 12.1261C7.6783 12.1664 7.6583 12.1798 7.6383 12.1729C7.62459 12.1729 7.60459 12.1464 7.60459 12.1195L7.63801 6.82922C7.63801 6.66179 7.57802 6.55493 7.51087 6.48779C7.44373 6.42093 7.33659 6.36065 7.16944 6.36065L1.87916 6.39408C1.8523 6.39408 1.82573 6.37408 1.82573 6.36065" fill="#453631"/>
</svg>
