<svg width="14" height="13" viewBox="0 0 14 13" fill="none" xmlns="http://www.w3.org/2000/svg">
<path d="M7 0.575195C7.9942 0.575195 8.95958 0.909752 9.74023 1.52539C10.5209 2.1411 11.072 3.00189 11.3037 3.96875C11.5354 4.93566 11.4345 5.95282 11.0176 6.85547C10.6176 7.72152 9.94773 8.43241 9.11133 8.88672C10.8773 9.41642 12.3948 10.6071 13.3682 12.2891H13.3672C13.3973 12.337 13.4185 12.3904 13.4277 12.4463C13.437 12.5027 13.4345 12.5607 13.4209 12.6162C13.4073 12.6718 13.382 12.7237 13.3477 12.7695C13.3133 12.8154 13.2703 12.8541 13.2207 12.8828C13.1712 12.9114 13.1163 12.9296 13.0596 12.9365C13.0027 12.9434 12.9447 12.9388 12.8896 12.9229C12.8347 12.9069 12.7836 12.88 12.7393 12.8438C12.6955 12.808 12.6593 12.7638 12.6328 12.7139L12.3984 12.3379C11.1766 10.506 9.18963 9.42676 7 9.42676C4.66459 9.42679 2.56005 10.6547 1.36816 12.7139C1.34175 12.7638 1.30542 12.8079 1.26172 12.8438C1.21735 12.88 1.1654 12.9069 1.11035 12.9229C1.05548 12.9387 0.998119 12.9434 0.941406 12.9365C0.884505 12.9296 0.828922 12.9115 0.779297 12.8828C0.729755 12.8541 0.686687 12.8153 0.652344 12.7695C0.618039 12.7237 0.592723 12.6718 0.579102 12.6162C0.565483 12.5606 0.563982 12.5028 0.573242 12.4463C0.582545 12.3897 0.603039 12.3355 0.633789 12.2871C1.60698 10.6058 3.12283 9.4158 4.8877 8.88672C4.05172 8.43239 3.38228 7.72121 2.98242 6.85547C2.56556 5.95284 2.46562 4.93563 2.69727 3.96875C2.92897 3.00197 3.47917 2.14106 4.25977 1.52539C5.04042 0.909713 6.00578 0.575216 7 0.575195ZM7.69727 1.49512C7.00386 1.35724 6.28501 1.42769 5.63184 1.69824C4.9787 1.9688 4.42015 2.42687 4.02734 3.01465C3.63458 3.60247 3.42487 4.29402 3.4248 5.00098C3.42595 5.94879 3.80343 6.85811 4.47363 7.52832C5.14378 8.19831 6.05238 8.57499 7 8.57617C7.70707 8.57617 8.39842 8.36646 8.98633 7.97363C9.57417 7.58081 10.0322 7.02234 10.3027 6.36914C10.5733 5.71593 10.6448 4.99715 10.5068 4.30371C10.3689 3.61038 10.0281 2.97355 9.52832 2.47363C9.02835 1.97366 8.39075 1.63306 7.69727 1.49512Z" fill="#453631" stroke="#453631" stroke-width="0.1"/>
</svg>
